<?xml version="1.0" encoding="UTF-8" standalone="no"?>
<!DOCTYPE svg PUBLIC "-//W3C//DTD SVG 1.1//EN" "http://www.w3.org/Graphics/SVG/1.1/DTD/svg11.dtd">
<svg width="100%" height="100%" viewBox="0 0 1024 600" version="1.1" xmlns="http://www.w3.org/2000/svg" xmlns:xlink="http://www.w3.org/1999/xlink" xml:space="preserve" xmlns:serif="http://www.serif.com/" style="fill-rule:evenodd;clip-rule:evenodd;stroke-linecap:round;stroke-linejoin:round;stroke-miterlimit:1.5;">
    <g transform="matrix(2.41479,0,0,2.40029,-188.773,-292.942)">
        <path d="M98.591,200.539L114.85,245.781L114.143,289.61L129.696,290.317L127.593,247.414L149.41,275.346L159.415,265.479L144.685,242.829L154.69,223.513L144.685,212.257L128.704,233.518L113.836,201.558L98.591,200.539Z" style="fill:none;stroke:black;stroke-width:0.42px;"/>
    </g>
    <g transform="matrix(2.41479,0,0,2.40029,-201.665,-291.249)">
        <path d="M169.877,228.715L172.633,267.535L185.453,265.498L181.379,227.158L169.877,228.715Z" style="fill:none;stroke:black;stroke-width:0.42px;"/>
    </g>
    <g transform="matrix(2.41479,0,0,2.40029,-196.413,-294.539)">
        <path d="M190.532,201.22L196.928,227.966L198.091,274.626L210.155,274.917L212.917,248.171L226.872,269.248L230.651,251.514L219.022,240.176L228.471,216.919L220.185,209.651L211.754,223.315L199.544,199.912L190.532,201.22Z" style="fill:none;stroke:black;stroke-width:0.42px;"/>
    </g>
    <g transform="matrix(2.41479,0,0,2.40029,-196.413,-294.539)">
        <path d="M238.423,227.997L240.416,260.421L252.908,260.023L248.921,225.871L238.423,227.997Z" style="fill:none;stroke:black;stroke-width:0.42px;"/>
    </g>
    <g transform="matrix(2.41479,0,0,2.40029,-196.413,-294.539)">
        <path d="M258.189,198.66L266.324,250.485L263.306,269.772L274.458,271.871L279.051,237.233L289.809,258.357L298.731,253.109L289.547,232.51L294.926,218.603L285.611,208.238L275.377,220.177L267.898,194.724L258.189,198.66Z" style="fill:none;stroke:black;stroke-width:0.42px;"/>
    </g>
    <g transform="matrix(2.41479,0,0,2.40029,-195.097,-292.354)">
        <path d="M307.117,201.993L310.318,255.966L343.778,253.348L338.832,237.2L322.247,237.2L318.174,202.43L307.117,201.993Z" style="fill:none;stroke:black;stroke-width:0.42px;"/>
    </g>
    <g transform="matrix(2.41479,0,0,2.40029,-181.753,-300.759)">
        <path d="M350.476,263.658L348.142,208.75L365.34,205.556L388.31,260.71L374.552,260.464L365.831,241.67L359.584,242.322L360.37,261.444L350.476,263.658Z" style="fill:none;stroke:black;stroke-width:0.42px;"/>
    </g>
    <g transform="matrix(2.41479,0,0,2.40029,-181.753,-300.759)">
        <path d="M356.501,218.834L358.397,228.727L365.565,227.009L362.662,219.367L356.501,218.834Z" style="fill:none;stroke:black;stroke-width:0.42px;"/>
    </g>
    <g transform="matrix(2.41479,0,0,2.40029,-182.011,-316.515)">
        <path d="M390.993,209.421L396.989,255.314L409.35,254.58L408.371,228.39L423.302,250.297L433.582,251.765L426.851,206.729L417.427,206.729L417.917,220.313L398.824,207.155L390.993,209.421Z" style="fill:none;stroke:black;stroke-width:0.42px;"/>
    </g>
    <g transform="matrix(2.41479,0,0,2.40029,-153.22,-277.342)">
        <path d="M464.438,208.241L451.408,199.389L437.782,201.179L436.489,216.496L443.65,249.816L454.79,250.115L469.212,248.722L472.989,237.611L469.58,223.348L455.685,227.039L454.79,234.002L462.987,233.463L462.361,240.525L450.184,243.234L445.879,216.568L446.179,209.531L451.294,210.385L459.422,216.381L464.438,208.241Z" style="fill:none;stroke:black;stroke-width:0.42px;"/>
    </g>
    <g transform="matrix(2.41479,0,0,2.40029,-153.22,-277.342)">
        <path d="M455.685,227.039L450.743,230.622L452.688,240.592L462.165,238.094L462.754,233.592L454.739,233.755L455.685,227.039Z" style="fill:rgb(201,105,114);stroke:black;stroke-width:0.42px;"/>
    </g>
    <g transform="matrix(2.41479,0,0,2.40029,-188.773,-292.942)">
        <path d="M98.591,200.539L92.688,208.824L103.76,245.428L104.832,292.764L119.068,300L129.69,290.317L114.186,289.491L114.906,245.653L98.591,200.539Z" style="fill:rgb(105,147,201);stroke:black;stroke-width:0.42px;"/>
    </g>
    <g transform="matrix(2.41479,0,0,2.40029,-188.773,-292.942)">
        <path d="M149.393,275.353L139.259,278.419L128.31,261.381L127.674,247.504L149.393,275.353Z" style="fill:rgb(201,105,114);stroke:black;stroke-width:0.42px;"/>
    </g>
    <g transform="matrix(2.41479,0,0,2.40029,-188.773,-292.942)">
        <path d="M144.54,212.394L128.63,233.245L126.014,227.631L144.54,212.394Z" style="fill:rgb(201,105,114);stroke:black;stroke-width:0.42px;"/>
    </g>
    <g transform="matrix(2.41479,0,0,2.40029,-201.665,-291.249)">
        <path d="M169.849,228.732L164.753,231.021L169.15,271.971L181.595,271.639L185.415,265.618L172.618,267.444L169.849,228.732Z" style="fill:rgb(105,147,201);stroke:black;stroke-width:0.42px;"/>
    </g>
    <g transform="matrix(2.41479,0,0,2.40029,-196.413,-294.539)">
        <path d="M190.532,201.221L183.873,205.656L190.532,231.577L190.532,277.491L201.512,280.023L210.159,274.917L198.104,274.633L196.862,227.765L190.532,201.221Z" style="fill:rgb(201,105,114);stroke:black;stroke-width:0.42px;"/>
    </g>
    <g transform="matrix(2.41479,0,0,2.40029,-196.413,-294.539)">
        <path d="M238.373,228.035L234.355,231.785L236.669,263.5L246.716,265.569L252.908,260.08C248.785,260.039 242.846,260.654 240.438,260.289L238.373,228.035Z" style="fill:rgb(105,147,201);stroke:black;stroke-width:0.42px;"/>
    </g>
    <g transform="matrix(2.41479,0,0,2.40029,-196.413,-294.539)">
        <path d="M226.879,269.26L221.884,269.714L212.454,253.567L213.031,248.437L226.879,269.26Z" style="fill:rgb(105,147,201);stroke:black;stroke-width:0.42px;"/>
    </g>
    <g transform="matrix(2.41479,0,0,2.40029,-196.413,-294.539)">
        <path d="M220.133,209.727L209.468,218.622L211.645,223.028L220.133,209.727Z" style="fill:rgb(201,105,114);stroke:black;stroke-width:0.42px;"/>
    </g>
    <g transform="matrix(2.41479,0,0,2.40029,-196.413,-294.539)">
        <path d="M258.292,198.603L252.269,203.086L258.189,248.437L255.992,267.566L255.666,274L271.127,276.784L274.46,271.871L263.316,269.714L266.481,250.351L258.292,198.603Z" style="fill:rgb(201,105,114);stroke:black;stroke-width:0.42px;"/>
    </g>
    <g transform="matrix(2.41479,0,0,2.40029,-196.413,-294.539)">
        <path d="M289.829,258.279L285.135,258.335L278.212,244.932L279.017,237.415L289.829,258.279Z" style="fill:rgb(105,147,201);stroke:black;stroke-width:0.42px;"/>
    </g>
    <g transform="matrix(2.41479,0,0,2.40029,-196.413,-294.539)">
        <path d="M285.52,208.373L273.794,214.677L275.313,220.02L285.52,208.373Z" style="fill:rgb(201,105,114);stroke:black;stroke-width:0.42px;"/>
    </g>
    <g transform="matrix(2.41479,0,0,2.40029,-195.097,-292.354)">
        <path d="M307.047,202.054L301.432,208.373L303.363,261.94L308.305,264.007L338.489,263.712L343.723,253.43L310.271,255.961L307.047,202.054Z" style="fill:rgb(201,105,114);stroke:black;stroke-width:0.42px;"/>
    </g>
    <g transform="matrix(2.41479,0,0,2.40029,-181.753,-300.759)">
        <path d="M347.956,208.853L340.811,214.196L344.577,271.871L355.842,269.95L360.328,261.558L350.5,263.658L347.956,208.853Z" style="fill:rgb(105,147,201);stroke:black;stroke-width:0.42px;"/>
    </g>
    <g transform="matrix(2.41479,0,0,2.40029,-181.753,-300.759)">
        <path d="M362.082,242.111L370.148,267.469L383.467,267.542L388.31,260.749L374.586,260.221L365.675,241.822L362.082,242.111Z" style="fill:rgb(201,105,114);stroke:black;stroke-width:0.42px;"/>
    </g>
    <g transform="matrix(2.41479,0,0,2.40029,-181.753,-300.759)">
        <path d="M362.491,219.365L359.262,219.062L362.082,227.73L365.588,227.069L362.491,219.365Z" style="fill:rgb(201,105,114);stroke:black;stroke-width:0.42px;"/>
    </g>
    <g transform="matrix(2.41479,0,0,2.40029,-182.011,-316.515)">
        <path d="M390.983,209.465L384.965,218.17L392.497,259.148L403.999,259.368L409.269,254.682L397.122,255.365L390.983,209.465Z" style="fill:rgb(201,105,114);stroke:black;stroke-width:0.42px;"/>
    </g>
    <g transform="matrix(2.41479,0,0,2.40029,-182.011,-316.515)">
        <path d="M423.279,250.259L417.1,250.864L408.676,234.881L408.405,228.759L423.279,250.259Z" style="fill:rgb(105,147,201);stroke:black;stroke-width:0.42px;"/>
    </g>
    <g transform="matrix(2.41479,0,0,2.40029,-182.011,-316.515)">
        <path d="M417.038,250.864L423.279,256.966L429.809,257.033L433.582,252.039L423.279,250.205L417.038,250.864Z" style="fill:rgb(201,105,114);stroke:black;stroke-width:0.42px;"/>
    </g>
    <g transform="matrix(2.41479,0,0,2.40029,-153.22,-277.342)">
        <path d="M437.753,201.204L430.013,208.039L428.421,215.977L438.941,257.933L453.774,257.033L467.055,255.314L469.216,248.714L454.827,250.205L443.641,249.69L436.48,216.397L437.753,201.204Z" style="fill:rgb(105,147,201);stroke:black;stroke-width:0.42px;"/>
    </g>
    <g transform="matrix(2.41479,0,0,2.40029,-153.22,-277.342)">
        <path d="M459.477,216.364L445.9,216.187L446.283,209.532L451.378,209.767L459.477,216.364Z" style="fill:rgb(201,105,114);stroke:black;stroke-width:0.42px;"/>
    </g>
</svg>
